<?xml version="1.0" standalone="no"?>
<!DOCTYPE svg PUBLIC "-//W3C//DTD SVG 20010904//EN"
 "http://www.w3.org/TR/2001/REC-SVG-20010904/DTD/svg10.dtd">
<svg version="1.0" xmlns="http://www.w3.org/2000/svg"
 width="240.000000pt" height="240.000000pt" viewBox="0 0 240.000000 240.000000"
 preserveAspectRatio="xMidYMid meet">

<g transform="translate(0.000000,240.000000) scale(0.100000,-0.100000)"
fill="#000000" stroke="none">
<path d="M1005 1648 c-160 -10 -381 -42 -420 -60 -23 -10 -41 -38 -92 -146
-35 -73 -63 -137 -63 -142 0 -6 15 -10 33 -10 33 0 34 2 46 54 38 169 223 261
580 287 158 11 429 1 570 -22 35 -5 65 -8 68 -6 9 9 -178 37 -312 47 -158 11
-224 11 -410 -2z"/>
<path d="M1080 1594 c19 -2 132 -8 250 -14 239 -11 303 -19 404 -52 116 -37
188 -124 141 -172 -33 -33 -119 -39 -465 -33 -503 9 -741 -13 -970 -89 -94
-31 -222 -93 -234 -112 -2 -4 26 7 62 25 141 67 348 112 644 139 151 14 257
15 603 11 231 -4 432 -9 448 -13 18 -4 27 -2 27 6 0 25 -70 159 -109 208 -37
47 -44 50 -105 61 -150 26 -350 41 -536 39 -107 -1 -179 -3 -160 -4z"/>
<path d="M253 1380 c-35 -14 -57 -54 -43 -79 8 -17 20 -21 56 -21 24 0 61 -7
81 -15 22 -9 40 -12 46 -6 5 5 -3 11 -19 15 -15 4 -38 16 -51 26 -13 10 -31
16 -41 14 -9 -2 -24 0 -32 6 -13 8 -13 11 0 23 27 26 68 29 90 7 11 -11 20
-28 20 -37 0 -12 3 -14 11 -6 6 6 9 26 7 44 -3 33 -4 34 -53 36 -27 1 -60 -2
-72 -7z"/>
<path d="M2040 1338 c0 -43 5 -44 24 -6 13 26 54 35 86 18 30 -16 25 -40 -7
-40 -16 0 -41 -9 -58 -20 -16 -11 -41 -20 -54 -20 -20 0 -21 -2 -11 -15 11
-13 15 -13 33 0 12 8 43 15 70 15 60 0 87 14 87 44 0 42 -39 66 -108 66 l-62
0 0 -42z"/>
<path d="M1185 1273 c-190 -9 -457 -46 -540 -73 -30 -10 -30 -10 5 -5 262 40
361 48 710 54 335 6 353 7 215 14 -230 11 -324 14 -390 10z"/>
<path d="M1760 1241 c30 -6 23 -8 -45 -15 -126 -12 -257 -33 -290 -46 l-30
-12 27 -21 c40 -32 129 -65 207 -78 96 -14 193 1 358 56 199 67 235 61 282
-45 11 -25 20 -38 20 -30 1 27 -46 114 -83 153 l-36 38 -72 -40 c-101 -55
-186 -74 -338 -75 -132 0 -205 15 -205 44 0 19 77 36 240 52 111 11 123 14 85
20 -25 3 -70 6 -100 6 -48 -1 -50 -2 -20 -7z"/>
<path d="M588 1183 c7 -3 16 -2 19 1 4 3 -2 6 -13 5 -11 0 -14 -3 -6 -6z"/>
<path d="M510 975 c0 -30 5 -55 10 -55 6 0 10 5 10 10 0 6 27 10 60 10 33 0
60 -4 60 -10 0 -5 7 -10 16 -10 8 0 12 5 8 11 -3 6 0 22 7 36 24 44 3 58 -90
61 l-81 3 0 -56z m148 13 c-3 -21 -9 -23 -65 -26 -62 -3 -63 -2 -63 23 0 24 2
25 66 25 62 0 65 -1 62 -22z"/>
<path d="M718 1005 c-8 -18 -9 -35 -2 -53 9 -26 12 -27 92 -30 52 -2 82 1 82
8 0 6 -30 10 -75 10 -93 0 -100 18 -8 22 42 2 68 8 71 16 3 9 -15 12 -67 12
-41 0 -71 4 -71 10 0 6 32 10 75 10 43 0 75 4 75 10 0 6 -33 10 -80 10 -76 0
-81 -1 -92 -25z"/>
<path d="M920 975 c0 -30 5 -55 10 -55 6 0 10 20 10 45 l0 45 53 0 c62 0 77
-11 77 -57 0 -18 5 -33 10 -33 6 0 10 17 10 38 0 57 -22 72 -103 72 l-67 0 0
-55z"/>
<path d="M1120 1020 c0 -5 20 -10 45 -10 l45 0 0 -45 c0 -33 4 -45 15 -45 11
0 15 12 15 45 l0 45 45 0 c25 0 45 5 45 10 0 6 -42 10 -105 10 -63 0 -105 -4
-105 -10z"/>
<path d="M1442 1018 c-7 -7 -12 -26 -12 -43 0 -46 16 -55 92 -55 53 0 70 4 75
15 7 20 -6 34 -16 17 -5 -9 -27 -12 -67 -10 -58 3 -59 3 -59 33 0 30 1 30 59
33 40 2 62 -1 67 -10 10 -17 23 -3 16 17 -8 19 -136 22 -155 3z"/>
<path d="M1642 1018 c-14 -14 -16 -98 -2 -98 6 0 10 7 10 15 0 12 14 15 65 15
51 0 65 -3 65 -15 0 -8 7 -15 15 -15 19 0 21 80 3 98 -7 7 -40 12 -78 12 -38
0 -71 -5 -78 -12z m138 -23 c0 -12 -14 -15 -65 -15 -60 0 -75 6 -58 23 3 4 33
7 65 7 45 0 58 -3 58 -15z"/>
<path d="M1830 975 c0 -42 3 -55 15 -55 8 0 15 5 15 10 0 6 24 10 54 10 30 0
58 -4 61 -10 9 -14 26 -12 24 3 -1 6 1 20 5 29 4 9 6 27 4 40 -3 22 -8 23 -90
26 l-88 3 0 -56z m160 16 c0 -24 -19 -31 -81 -31 -46 0 -49 2 -49 25 0 24 2
25 65 25 57 0 65 -2 65 -19z"/>
<path d="M1360 720 c0 -27 5 -50 10 -50 6 0 10 23 10 50 0 28 -4 50 -10 50 -5
0 -10 -22 -10 -50z"/>
<path d="M1402 758 c-20 -20 -14 -37 16 -44 46 -10 53 -14 47 -24 -3 -5 -23
-10 -43 -11 -32 0 -34 -1 -14 -9 30 -13 75 5 70 27 -2 10 -18 21 -36 27 -41
11 -42 26 -1 26 17 0 28 4 24 10 -9 14 -48 13 -63 -2z"/>
<path d="M1490 720 c0 -27 5 -50 10 -50 6 0 10 15 10 33 l1 32 14 -32 c8 -18
19 -33 25 -33 6 0 17 15 25 33 l14 32 1 -32 c0 -18 5 -33 10 -33 13 0 13 87 0
95 -5 3 -19 -13 -31 -36 l-21 -42 -18 42 c-25 55 -40 52 -40 -9z"/>
<path d="M1636 727 c-18 -49 -22 -83 -5 -54 12 20 40 22 57 5 7 -7 12 -8 12
-3 0 17 -33 95 -40 95 -4 0 -15 -19 -24 -43z m37 -7 c4 -15 0 -20 -13 -20 -13
0 -17 5 -13 20 3 11 9 20 13 20 4 0 10 -9 13 -20z"/>
<path d="M1730 725 c-23 -53 -26 -78 -6 -52 14 18 56 24 56 7 0 -5 4 -10 9
-10 11 0 -16 87 -30 96 -5 3 -18 -16 -29 -41z m39 -17 c1 -5 -6 -8 -14 -8 -16
0 -19 9 -8 36 6 16 7 16 14 -2 4 -10 8 -22 8 -26z"/>
<path d="M1813 715 c0 -33 2 -45 4 -27 2 18 2 45 0 60 -2 15 -4 0 -4 -33z"/>
<path d="M1842 718 l-2 -58 34 0 c19 0 38 5 41 10 4 6 -8 10 -29 10 -34 0 -35
1 -39 48 -3 46 -3 46 -5 -10z"/>
<path d="M493 693 c142 -2 372 -2 510 0 139 1 23 2 -258 2 -280 0 -394 -1
-252 -2z"/>
</g>
</svg>
